<?xml version="1.0" encoding="UTF-8"?> <!-- Generator: Adobe Illustrator 19.0.0, SVG Export Plug-In . SVG Version: 6.00 Build 0) --> <svg xmlns="http://www.w3.org/2000/svg" xmlns:xlink="http://www.w3.org/1999/xlink" id="Слой_1" x="0px" y="0px" viewBox="0 0 179 57.5" style="enable-background:new 0 0 179 57.5;" xml:space="preserve"> <style type="text/css"> .st0{fill:#FFFFFF;} </style> <g id="XMLID_1_"> <path id="XMLID_3_" class="st0" d="M65.3,23h4.5c0.7,0,1.3,0.1,1.8,0.3c0.5,0.2,0.9,0.4,1.3,0.7c0.3,0.3,0.6,0.7,0.8,1.1 c0.2,0.4,0.2,0.9,0.2,1.3c0,0.4-0.1,0.8-0.2,1.2c-0.2,0.3-0.3,0.6-0.6,0.9c-0.2,0.2-0.5,0.4-0.7,0.6c-0.3,0.1-0.5,0.2-0.7,0.3 c0.3,0,0.6,0.1,0.9,0.2c0.3,0.1,0.7,0.3,0.9,0.6c0.3,0.3,0.5,0.6,0.7,1s0.3,0.9,0.3,1.5c0,0.7-0.1,1.3-0.4,1.8 c-0.3,0.5-0.6,0.9-1.1,1.2c-0.4,0.3-1,0.5-1.6,0.6c-0.6,0.1-1.3,0.2-2,0.2h-4.3V23z M69.6,28.6c0.3,0,0.6,0,0.9-0.1 c0.3-0.1,0.6-0.2,0.8-0.4c0.2-0.2,0.4-0.4,0.6-0.6c0.1-0.3,0.2-0.6,0.2-0.9c0-0.4-0.1-0.7-0.2-1c-0.1-0.2-0.3-0.4-0.6-0.6 c-0.2-0.1-0.5-0.2-0.8-0.3c-0.3,0-0.6-0.1-0.9-0.1h-2.4v3.9H69.6z M69.5,34.7c0.3,0,0.7,0,1.1-0.1c0.4,0,0.7-0.1,1-0.3 c0.3-0.1,0.6-0.4,0.8-0.6c0.2-0.3,0.3-0.7,0.3-1.2c0-0.5-0.1-0.9-0.3-1.2c-0.2-0.3-0.4-0.5-0.7-0.7c-0.3-0.2-0.6-0.3-1-0.3 c-0.4-0.1-0.7-0.1-1-0.1h-2.4v4.5H69.5z"></path> <path id="XMLID_9_" class="st0" d="M79.1,23H81v13.3h-1.9V23z"></path> <path id="XMLID_11_" class="st0" d="M86.1,23H88l7.3,10.4V23h1.9v13.3h-1.9L88,25.9v10.4h-1.9V23z"></path> <path id="XMLID_13_" class="st0" d="M102.2,23h1.9v6.1l5.6-6.1h2.2l-5,5.4l5.6,7.9h-2.3l-4.6-6.5l-1.5,1.6v4.9h-1.9V23z"></path> <path id="XMLID_16_" class="st0" d="M120.2,23h2l5.2,13.3h-2.1l-1.4-3.7h-5.5l-1.4,3.7h-2L120.2,23z M123.3,31l-2.2-5.9l-2.2,5.9 H123.3z"></path> <path id="XMLID_19_" class="st0" d="M131.1,23h4.5c0.7,0,1.3,0.1,1.8,0.3c0.5,0.2,0.9,0.4,1.3,0.7c0.3,0.3,0.6,0.7,0.8,1.1 c0.2,0.4,0.2,0.9,0.2,1.3c0,0.4-0.1,0.8-0.2,1.2c-0.2,0.3-0.3,0.6-0.6,0.9c-0.2,0.2-0.5,0.4-0.7,0.6c-0.3,0.1-0.5,0.2-0.7,0.3 c0.3,0,0.6,0.1,0.9,0.2c0.3,0.1,0.7,0.3,0.9,0.6c0.3,0.3,0.5,0.6,0.7,1s0.3,0.9,0.3,1.5c0,0.7-0.1,1.3-0.4,1.8 c-0.3,0.5-0.6,0.9-1.1,1.2c-0.4,0.3-1,0.5-1.6,0.6c-0.6,0.1-1.3,0.2-2,0.2h-4.3V23z M135.3,28.6c0.3,0,0.6,0,0.9-0.1 c0.3-0.1,0.6-0.2,0.8-0.4c0.2-0.2,0.4-0.4,0.6-0.6c0.1-0.3,0.2-0.6,0.2-0.9c0-0.4-0.1-0.7-0.2-1c-0.1-0.2-0.3-0.4-0.6-0.6 c-0.2-0.1-0.5-0.2-0.8-0.3c-0.3,0-0.6-0.1-0.9-0.1H133v3.9H135.3z M135.3,34.7c0.3,0,0.7,0,1.1-0.1c0.4,0,0.7-0.1,1-0.3 c0.3-0.1,0.6-0.4,0.8-0.6c0.2-0.3,0.3-0.7,0.3-1.2c0-0.5-0.1-0.9-0.3-1.2c-0.2-0.3-0.4-0.5-0.7-0.7c-0.3-0.2-0.6-0.3-1-0.3 c-0.4-0.1-0.7-0.1-1-0.1H133v4.5H135.3z"></path> <path id="XMLID_23_" class="st0" d="M144.9,23h1.9v13.3h-1.9V23z"></path> </g> <g id="XMLID_2_"> <g id="XMLID_30_"> <path id="XMLID_32_" class="st0" d="M55.1,30.2c-0.1-0.2-0.3-0.4-0.4-0.6c-0.3-0.4-0.7-0.8-1.1-1.1l-0.3-0.2l-8.5-6.4l-0.1-0.1 c-0.5-0.4-1.1-0.6-1.7-0.6c-1.6,0-3,1.3-3,3c0,1,0.5,1.8,1.2,2.4l4,3l1.5,1.1c0.1,0.1,0.2,0.1,0.3,0.2c0.6,0.5,1.1,1.4,1.1,2.3 c0,0.9-0.4,1.8-1.1,2.3l0,0c-0.1,0.1-0.1,0.1-0.2,0.2l0,0L46,36.2l-0.8,0.6l-4,3c-0.1,0.1-0.1,0.1-0.2,0.2c-0.6,0.5-1,1.3-1,2.2 c0,1.6,1.3,3,3,3c0.7,0,1.3-0.2,1.8-0.6l0,0l1.2-0.9l7.5-5.7l0,0c0.5-0.3,0.9-0.7,1.2-1.2c0.1-0.2,0.3-0.4,0.4-0.6 c0.5-0.9,0.8-1.9,0.8-3C55.9,32.1,55.7,31.1,55.1,30.2z"></path> <path id="XMLID_31_" class="st0" d="M38.9,30.8l-4-3l-1.4-1.1c-0.1-0.1-0.2-0.1-0.3-0.2c-0.6-0.5-1-1.4-1-2.3 c0-0.9,0.4-1.8,1.1-2.3c0,0,0,0,0,0c0.1,0,0.1-0.1,0.2-0.1c0,0,0,0,0,0l0.7-0.5l0.8-0.6l4-3c0.1-0.1,0.1-0.1,0.2-0.2 c0.6-0.5,1-1.3,1-2.2c0-1.6-1.3-3-3-3c-0.7,0-1.3,0.2-1.7,0.6L35.2,13l-1.2,0.9l-7.2,5.4l-0.8,0.6c-0.3,0.3-0.6,0.6-0.8,0.9 c-0.2,0.2-0.3,0.4-0.4,0.6c-0.5,0.9-0.8,1.9-0.8,3c0,1.1,0.3,2.1,0.8,3c0.1,0.2,0.3,0.4,0.4,0.6c0.2,0.3,0.5,0.6,0.8,0.9l0.8,0.6 l8.4,6.3l0,0c0.5,0.4,1.1,0.6,1.8,0.6c1.6,0,3-1.3,3-3C40,32.2,39.6,31.4,38.9,30.8z"></path> </g> </g> </svg> 